<svg xmlns="http://www.w3.org/2000/svg" viewBox="0 0 191.33 53.54"><g id="Text"><path d="M40.87,27.1c-.43,0-.64-.23-.64-.69v-2c0-.4.21-.6.64-.6h9.77a7.39,7.39,0,0,1,2.89.58A7.77,7.77,0,0,1,56,26a7.85,7.85,0,0,1,1.7,2.4,7.16,7.16,0,0,1,.65,3.05,7.78,7.78,0,0,1-.69,3.23,8.13,8.13,0,0,1-2,2.7,8.93,8.93,0,0,1,3.07,3.07,7.89,7.89,0,0,1,1.13,4.08,7.66,7.66,0,0,1-.65,3.15,8.58,8.58,0,0,1-1.75,2.63,8.17,8.17,0,0,1-2.59,1.77,7.6,7.6,0,0,1-3.08.65H38.85c-.45,0-.68-.2-.68-.61V36.79a.57.57,0,0,1,.64-.65H50.4a4.24,4.24,0,0,0,1.74-.36,4.66,4.66,0,0,0,1.41-1,4.49,4.49,0,0,0,1-1.41,4.24,4.24,0,0,0,.36-1.74,4.57,4.57,0,0,0-1.23-3.25,4.21,4.21,0,0,0-3.21-1.31Zm.65,22.29H51.75A3.89,3.89,0,0,0,53.56,49,5,5,0,0,0,55,47.85a5.3,5.3,0,0,0,1-1.57,4.81,4.81,0,0,0,.06-3.7,5.17,5.17,0,0,0-1-1.61,4.54,4.54,0,0,0-1.49-1.11,4.37,4.37,0,0,0-1.87-.41H41.52Z"/><path d="M87.19,23.44a.51.51,0,0,1,.24.47V40.83a11.65,11.65,0,0,1-.93,4.66A12.26,12.26,0,0,1,84,49.27a11.59,11.59,0,0,1-3.78,2.52,11.94,11.94,0,0,1-4.68.91,11.2,11.2,0,0,1-4.57-1,12.48,12.48,0,0,1-3.75-2.56,12.2,12.2,0,0,1-2.56-3.78,11.15,11.15,0,0,1-1-4.58V23.91a.62.62,0,0,1,.16-.43.5.5,0,0,1,.39-.18H66.4a.64.64,0,0,1,.44.18.58.58,0,0,1,.2.43V40.3a10.09,10.09,0,0,0,.63,3.6,8.94,8.94,0,0,0,1.74,2.9,7.65,7.65,0,0,0,2.71,2,8.64,8.64,0,0,0,3.54.71,8.33,8.33,0,0,0,3.56-.73,7.51,7.51,0,0,0,2.65-2,8.65,8.65,0,0,0,1.64-2.93,10.84,10.84,0,0,0,.57-3.53V23.91a.56.56,0,0,1,.2-.45.8.8,0,0,1,.49-.16h1.89A1.08,1.08,0,0,1,87.19,23.44Z"/><path d="M93.94,23.79c.45,0,.68.21.68.64V52.09c0,.41-.23.61-.68.61H91.86a.53.53,0,0,1-.59-.61V24.39a.56.56,0,0,1,.18-.44.57.57,0,0,1,.41-.16Z"/><path d="M101.81,52.7a.54.54,0,0,1-.61-.61V24.39c0-.4.22-.6.65-.6h2.09a.53.53,0,0,1,.61.6V49.31h14.17a.51.51,0,0,1,.47.22.92.92,0,0,1,.14.47v2.09a.63.63,0,0,1-.61.61Z"/><path d="M142.31,52.29c0,.14-.1.24-.29.31a2.1,2.1,0,0,1-.64.1h-2.75a.76.76,0,0,1-.54-.22l-.43-.43-7.47-7.91L126.48,48v3.72a.86.86,0,0,1-1,1h-1.43c-.63,0-.94-.32-.94-1v-27a1,1,0,0,1,.24-.71.89.89,0,0,1,.7-.26h1.43a.92.92,0,0,1,.71.28,1,1,0,0,1,.27.69V36.18l8.23-8.76.45-.42a.8.8,0,0,1,.56-.23h2.75c.57,0,.85.15.85.45a.49.49,0,0,1-.16.32L126.48,41v2.22l10.7-11.31.44-.42a.8.8,0,0,1,.57-.22h2.74a1.41,1.41,0,0,1,.73.2c.24.13.24.32,0,.56l-9.21,9.69,9.65,10.22A1,1,0,0,1,142.31,52.29Z"/><path d="M146.1,52V24.35c0-.38.21-.56.64-.56h19.07a.53.53,0,0,1,.6.61v2c0,.49-.21.73-.64.73H149.45V32h13a.54.54,0,0,1,.45.21.71.71,0,0,1,.16.48v2a.76.76,0,0,1-.16.49.56.56,0,0,1-.45.2h-13v5h13c.41,0,.61.22.61.65v2a.78.78,0,0,1-.16.47.55.55,0,0,1-.45.22h-13v5.52h16.19a.77.77,0,0,1,.53.18.66.66,0,0,1,.2.51v2a.61.61,0,0,1-.68.69H146.74A.56.56,0,0,1,146.1,52Z"/><path d="M182.69,38.65a5.12,5.12,0,0,0,2-.59A6.15,6.15,0,0,0,187.55,35a5.44,5.44,0,0,0,0-4.24,6.43,6.43,0,0,0-1.19-1.86,5.77,5.77,0,0,0-1.78-1.29,5,5,0,0,0-2.16-.48h-9.73c-.43,0-.65-.23-.65-.69v-2c0-.4.22-.6.65-.6h9.77a8.39,8.39,0,0,1,3.44.72,9.28,9.28,0,0,1,2.81,2,9.48,9.48,0,0,1,1.92,2.89,8.66,8.66,0,0,1,.19,6.44,9.53,9.53,0,0,1-1.43,2.6,10,10,0,0,1-2.15,2.06,8.53,8.53,0,0,1-2.74,1.3l6.29,10.49a.9.9,0,0,1,.13.33c0,.08-.13.12-.37.12h-3a.75.75,0,0,1-.52-.18,1.87,1.87,0,0,1-.36-.43L180.53,42h-6.89V52.09a.54.54,0,0,1-.61.61h-2.1c-.43,0-.64-.2-.64-.61V39.33c0-.46.21-.68.64-.68Z"/></g><g id="Capa_3" data-name="Capa 3"><path d="M13.17,0A22.69,22.69,0,0,0,.78,3.68h0A1.72,1.72,0,0,0,2.66,6.56a19.25,19.25,0,0,1,21,0h0a1.72,1.72,0,0,0,1.88-2.88A22.69,22.69,0,0,0,13.17,0Zm0,7.51a15.25,15.25,0,0,0-9.09,3h0A1.72,1.72,0,0,0,3.67,13a1.72,1.72,0,0,0,2.46.31,11.75,11.75,0,0,1,14.07,0A1.72,1.72,0,0,0,22.66,13a1.74,1.74,0,0,0-.41-2.45,15.22,15.22,0,0,0-9.08-3Zm0,8.07A7.12,7.12,0,0,0,7.5,18.39h0a1.66,1.66,0,0,0-.33,1.27A1.7,1.7,0,0,0,9.1,21.13a1.7,1.7,0,0,0,1.14-.66,3.68,3.68,0,0,1,5.85,0,1.72,1.72,0,0,0,3.12-.78,1.77,1.77,0,0,0-.38-1.29,7.13,7.13,0,0,0-5.66-2.82ZM2.25,28.27A1.71,1.71,0,0,0,.53,30V51.81a1.72,1.72,0,0,0,1.72,1.73H24.07a1.74,1.74,0,0,0,1.73-1.73V30a1.72,1.72,0,0,0-1.73-1.72ZM4,31.7h18.4V50.1H4Z"/></g></svg>