<?xml version="1.0" encoding="UTF-8"?>
<svg width="700pt" height="700pt" version="1.1" viewBox="0 0 700 700" xmlns="http://www.w3.org/2000/svg">
 <path d="m350.07 7.2969c-44.797 0-88.688 13.016-126.23 37.461h0.003906c-3.8906 2.5391-6.6133 6.5156-7.5703 11.062-0.95703 4.5469-0.066407 9.2852 2.4727 13.176 2.5391 3.8867 6.5195 6.6094 11.062 7.5625 4.5469 0.95703 9.2852 0.066406 13.176-2.4727 31.859-20.746 69.066-31.785 107.09-31.785 38.02 0 75.09 11.039 106.95 31.785h-0.003906c5.2383 3.418 11.906 3.7812 17.484 0.95312 5.582-2.8242 9.2305-8.4141 9.5703-14.66 0.34375-6.2461-2.6758-12.203-7.9141-15.621-37.539-24.445-81.289-37.461-126.09-37.461zm0 76.492c-33.348 0-65.902 10.781-92.629 30.727l0.003906 0.003906c-3.9375 2.6875-6.6094 6.8711-7.3906 11.574-0.78516 4.7031 0.38281 9.5234 3.2344 13.348 2.8555 3.8203 7.1406 6.3125 11.875 6.8984 4.7344 0.58594 9.5-0.78516 13.199-3.793 20.68-15.438 45.902-23.754 71.707-23.754 25.82 0 50.891 8.3047 71.574 23.754 3.6992 3.0078 8.4648 4.3789 13.199 3.793 4.7305-0.58594 9.0195-3.0781 11.871-6.9023 2.8555-3.8203 4.0234-8.6406 3.2383-13.344-0.78516-4.7031-3.4531-8.8867-7.3906-11.574-26.73-19.965-59.129-30.727-92.492-30.727zm0 82.27c-22.613 0-44.078 10.539-57.762 28.539v0.003906c-2.8125 3.7031-4.0352 8.3711-3.4062 12.977 0.63281 4.6094 3.0664 8.7734 6.7695 11.586s8.3711 4.0352 12.98 3.4023c4.6055-0.63281 8.7695-3.0703 11.582-6.7734 7.082-9.3164 18.133-14.73 29.836-14.73 11.711 0 22.617 5.4062 29.703 14.73 2.7109 3.9258 6.9023 6.5742 11.609 7.3359 4.7109 0.76172 9.5234-0.42969 13.332-3.3008 3.8086-2.8711 6.2812-7.1719 6.8438-11.91 0.5625-4.7344-0.83203-9.4961-3.8594-13.18-13.684-18.012-35.004-28.676-57.629-28.676zm-111.22 129.2c-4.6641-0.019531-9.1445 1.8281-12.441 5.125-3.3008 3.3008-5.1445 7.7773-5.125 12.441v222.3c-0.019531 4.668 1.8242 9.1445 5.125 12.445 3.2969 3.2969 7.7773 5.1406 12.441 5.125h222.3c4.6641 0.015625 9.1445-1.8281 12.441-5.125 3.3008-3.3008 5.1445-7.7773 5.125-12.445v-222.3c0.019531-4.6641-1.8242-9.1406-5.125-12.441-3.2969-3.2969-7.7773-5.1445-12.441-5.125zm17.434 35h187.44v187.44h-187.44z"/>
</svg>
